<svg xmlns="http://www.w3.org/2000/svg" viewBox="0 0 512 512">
  <defs>
    <linearGradient id="g1" x1="0" x2="1" y1="0" y2="1">
      <stop offset="0%" stop-color="#1d4ed8"/>
      <stop offset="100%" stop-color="#0ea5e9"/>
    </linearGradient>
  </defs>
  <circle cx="256" cy="256" r="228" fill="rgb(245, 247, 250)" stroke="#1d4ed8" stroke-width="10"/>
  <circle cx="256" cy="256" r="200" fill="#ffffff" stroke="#0ea5e9" stroke-width="12"/>
  <polyline fill="none" stroke="#111827" stroke-width="14" stroke-linejoin="round" stroke-linecap="round"
    points="136,316 196,276 246,296 286,246 346,216 376,156"/>
  <g>
    <circle cx="376" cy="156" r="6" fill="#eab308"/>
    <!-- rays -->
    <line x1="382.0" y1="156.0" x2="394.0" y2="156.0" stroke="#eab308" stroke-width="4"/><line x1="380.24264068711926" y1="160.2426406871193" x2="388.72792206135784" y2="168.72792206135784" stroke="#eab308" stroke-width="4"/><line x1="376.0" y1="162.0" x2="376.0" y2="174.0" stroke="#eab308" stroke-width="4"/><line x1="371.75735931288074" y1="160.2426406871193" x2="363.27207793864216" y2="168.72792206135784" stroke="#eab308" stroke-width="4"/><line x1="370.0" y1="156.0" x2="358.0" y2="156.0" stroke="#eab308" stroke-width="4"/><line x1="371.75735931288074" y1="151.7573593128807" x2="363.27207793864216" y2="143.27207793864216" stroke="#eab308" stroke-width="4"/><line x1="376.0" y1="150.0" x2="376.0" y2="138.0" stroke="#eab308" stroke-width="4"/><line x1="380.24264068711926" y1="151.7573593128807" x2="388.72792206135784" y2="143.27207793864216" stroke="#eab308" stroke-width="4"/>
  </g>
  <!-- stylized won sign -->
  <g stroke="#0ea5e9" stroke-width="10" stroke-linecap="round">
    <line x1="154" y1="176" x2="154" y2="280"/>
    <line x1="198"  y1="176" x2="198"  y2="280"/>
    <line x1="140" y1="206" x2="212"  y2="206"/>
    <line x1="140" y1="240" x2="212"  y2="240"/>
  </g>
</svg>